<svg width="192" height="72" viewBox="0 0 192 72" fill="none" xmlns="http://www.w3.org/2000/svg">
<path d="M52.3597 36.2C52.3597 32.904 53.0957 29.96 54.5677 27.368C56.0717 24.744 58.1037 22.712 60.6637 21.272C63.2557 19.8 66.1517 19.064 69.3517 19.064C73.0957 19.064 76.3757 20.024 79.1917 21.944C82.0077 23.864 83.9757 26.52 85.0957 29.912H77.3677C76.5997 28.312 75.5117 27.112 74.1037 26.312C72.7277 25.512 71.1277 25.112 69.3037 25.112C67.3517 25.112 65.6077 25.576 64.0717 26.504C62.5677 27.4 61.3837 28.68 60.5197 30.344C59.6877 32.008 59.2717 33.96 59.2717 36.2C59.2717 38.408 59.6877 40.36 60.5197 42.056C61.3837 43.72 62.5677 45.016 64.0717 45.944C65.6077 46.84 67.3517 47.288 69.3037 47.288C71.1277 47.288 72.7277 46.888 74.1037 46.088C75.5117 45.256 76.5997 44.04 77.3677 42.44H85.0957C83.9757 45.864 82.0077 48.536 79.1917 50.456C76.4077 52.344 73.1277 53.288 69.3517 53.288C66.1517 53.288 63.2557 52.568 60.6637 51.128C58.1037 49.656 56.0717 47.624 54.5677 45.032C53.0957 42.44 52.3597 39.496 52.3597 36.2ZM114.595 39.128C114.595 40.088 114.531 40.952 114.403 41.72H94.9634C95.1234 43.64 95.7954 45.144 96.9794 46.232C98.1634 47.32 99.6194 47.864 101.347 47.864C103.843 47.864 105.619 46.792 106.675 44.648H113.923C113.155 47.208 111.683 49.32 109.507 50.984C107.331 52.616 104.659 53.432 101.491 53.432C98.9314 53.432 96.6274 52.872 94.5794 51.752C92.5634 50.6 90.9794 48.984 89.8274 46.904C88.7074 44.824 88.1474 42.424 88.1474 39.704C88.1474 36.952 88.7074 34.536 89.8274 32.456C90.9474 30.376 92.5154 28.776 94.5314 27.656C96.5474 26.536 98.8674 25.976 101.491 25.976C104.019 25.976 106.275 26.52 108.259 27.608C110.275 28.696 111.827 30.248 112.915 32.264C114.035 34.248 114.595 36.536 114.595 39.128ZM107.635 37.208C107.603 35.48 106.979 34.104 105.763 33.08C104.547 32.024 103.059 31.496 101.299 31.496C99.6354 31.496 98.2274 32.008 97.0754 33.032C95.9554 34.024 95.2674 35.416 95.0114 37.208H107.635ZM133.276 26.024C136.444 26.024 139.004 27.032 140.956 29.048C142.908 31.032 143.884 33.816 143.884 37.4V53H137.164V38.312C137.164 36.2 136.636 34.584 135.58 33.464C134.524 32.312 133.084 31.736 131.26 31.736C129.404 31.736 127.932 32.312 126.844 33.464C125.788 34.584 125.26 36.2 125.26 38.312V53H118.54V26.408H125.26V29.72C126.156 28.568 127.292 27.672 128.668 27.032C130.076 26.36 131.612 26.024 133.276 26.024Z" fill="white"/>
<path d="M147.587 39.608C147.587 36.92 148.115 34.536 149.171 32.456C150.259 30.376 151.715 28.776 153.539 27.656C155.395 26.536 157.459 25.976 159.731 25.976C161.715 25.976 163.443 26.376 164.915 27.176C166.419 27.976 167.619 28.984 168.515 30.2V26.408H175.283V53H168.515V49.112C167.651 50.36 166.451 51.4 164.915 52.232C163.411 53.032 161.667 53.432 159.683 53.432C157.443 53.432 155.395 52.856 153.539 51.704C151.715 50.552 150.259 48.936 149.171 46.856C148.115 44.744 147.587 42.328 147.587 39.608ZM168.515 39.704C168.515 38.072 168.195 36.68 167.555 35.528C166.915 34.344 166.051 33.448 164.963 32.84C163.875 32.2 162.707 31.88 161.459 31.88C160.211 31.88 159.059 32.184 158.003 32.792C156.947 33.4 156.083 34.296 155.411 35.48C154.771 36.632 154.451 38.008 154.451 39.608C154.451 41.208 154.771 42.616 155.411 43.832C156.083 45.016 156.947 45.928 158.003 46.568C159.091 47.208 160.243 47.528 161.459 47.528C162.707 47.528 163.875 47.224 164.963 46.616C166.051 45.976 166.915 45.08 167.555 43.928C168.195 42.744 168.515 41.336 168.515 39.704ZM184.294 23.24C183.11 23.24 182.118 22.872 181.318 22.136C180.55 21.368 180.166 20.424 180.166 19.304C180.166 18.184 180.55 17.256 181.318 16.52C182.118 15.752 183.11 15.368 184.294 15.368C185.478 15.368 186.454 15.752 187.222 16.52C188.022 17.256 188.422 18.184 188.422 19.304C188.422 20.424 188.022 21.368 187.222 22.136C186.454 22.872 185.478 23.24 184.294 23.24ZM187.606 26.408V53H180.886V26.408H187.606Z" fill="#D4483C"/>
<path d="M43.7651 32.5147C42.9651 31.7147 41.914 31.2775 40.7884 31.2775C36.5279 31.2775 32.3233 31.9659 28.286 33.3333L26.407 33.9659C26.2953 34.0031 26.2302 33.845 26.3326 33.7984L28.1186 32.9147C31.9419 31.0263 35.4023 28.5426 38.4163 25.5287C39.207 24.738 39.6442 23.7054 39.6535 22.6077C39.6814 20.3008 37.8023 18.3752 35.4953 18.338C34.3512 18.3194 33.2721 18.7659 32.4628 19.5752C29.4488 22.5891 26.9651 26.0496 25.0767 29.8729L24.193 31.6589C24.1372 31.7612 23.9884 31.6961 24.0256 31.5845L24.6581 29.7054C26.0256 25.6682 26.714 21.4636 26.714 17.2031C26.714 16.0775 26.2767 15.017 25.4767 14.2263C24.6767 13.4263 23.6256 12.9891 22.5 12.9891C21.3744 12.9891 20.314 13.4263 19.5233 14.2263C18.7233 15.0263 18.286 16.0775 18.286 17.2031C18.286 21.4636 18.9744 25.6682 20.3419 29.7054L20.9744 31.5845C21.0116 31.6961 20.8535 31.7612 20.807 31.6589L19.9233 29.8729C18.0349 26.0496 15.5512 22.5891 12.5372 19.5752C11.7465 18.7845 10.714 18.3473 9.61628 18.338C7.3 18.3101 5.37442 20.1891 5.34651 22.4961C5.32791 23.6403 5.77442 24.7194 6.58372 25.5287C9.59767 28.5426 13.0581 31.0263 16.8814 32.9147L18.6674 33.7984C18.7698 33.8543 18.7047 34.0031 18.593 33.9659L16.714 33.3333C12.6767 31.9659 8.47209 31.2775 4.21163 31.2775C3.08605 31.2775 2.02558 31.7147 1.23488 32.5147C-0.411628 34.1612 -0.411628 36.831 1.23488 38.4775C2.03488 39.2775 3.08605 39.7147 4.21163 39.7147C8.47209 39.7147 12.6767 39.0263 16.714 37.6589L18.593 37.0263C18.7047 36.9891 18.7698 37.1473 18.6674 37.1938L16.8814 38.0775C13.0581 39.9659 9.59767 42.4496 6.58372 45.4636C5.79302 46.2543 5.35581 47.2868 5.34651 48.3845C5.3186 50.6915 7.19767 52.617 9.50465 52.6543C10.6488 52.6729 11.7279 52.2263 12.5372 51.417C15.5512 48.4031 18.0349 44.9426 19.9233 41.1194L20.807 39.3333C20.8628 39.231 21.0116 39.2961 20.9744 39.4077L20.3419 41.2868C18.9744 45.324 18.286 49.5287 18.286 53.7891C18.286 54.9147 18.7233 55.9752 19.5233 56.7659C20.3233 57.5659 21.3744 58.0031 22.5 58.0031C23.6256 58.0031 24.686 57.5659 25.4767 56.7659C26.2767 55.9659 26.714 54.9147 26.714 53.7891C26.714 49.5287 26.0256 45.324 24.6581 41.2868L24.0256 39.4077C23.9884 39.2961 24.1465 39.231 24.193 39.3333L25.0767 41.1194C26.9651 44.9426 29.4488 48.4031 32.4628 51.417C33.2535 52.2077 34.286 52.645 35.3837 52.6543C37.6907 52.6822 39.6163 50.8031 39.6535 48.4961C39.6721 47.3519 39.2256 46.2729 38.4163 45.4636C35.4023 42.4496 31.9419 39.9659 28.1186 38.0775L26.3326 37.1938C26.2302 37.138 26.2953 36.9891 26.407 37.0263L28.286 37.6589C32.3233 39.0263 36.5279 39.7147 40.7884 39.7147C41.914 39.7147 42.9744 39.2775 43.7651 38.4775C45.4116 36.831 45.4116 34.1519 43.7651 32.5147Z" fill="#D4483C"/>
</svg>
