<svg width="33" height="39" viewBox="0 0 33 39" fill="none" xmlns="http://www.w3.org/2000/svg">
<path d="M20.1854 2.47469L19.0339 0.885842C18.8735 0.664574 18.7935 0.554014 18.6712 0.49688C18.5491 0.439819 18.4196 0.448831 18.1604 0.466786C15.2084 0.671916 12.5185 1.82943 10.3955 3.63431C10.2834 3.72961 10.3521 3.90312 10.499 3.91177C12.2022 4.01201 13.1086 4.95828 14.1014 6.00777C15.6358 7.63006 16.8424 7.49595 17.408 7.19698C17.6392 7.07479 17.6818 6.98828 17.6964 6.95848L17.6974 6.95637C17.7436 6.86311 17.7629 6.76346 17.8317 6.38598C17.8892 6.07058 17.989 5.52918 18.335 5.0064C18.7009 4.45352 19.2472 4.05053 19.9674 3.76493C20.2677 3.64587 20.3601 3.47926 20.3934 3.32211C20.435 3.12628 20.4014 2.81466 20.1854 2.47469Z" fill="white"/>
<path d="M21.8346 26.6672C22.0342 26.8343 22.1338 26.918 22.2599 26.9451C22.3861 26.9722 22.505 26.9389 22.7431 26.8724C27.0306 25.6714 30.4533 22.3995 31.866 18.2029C32.0513 17.6522 32.1441 17.3769 31.9881 17.1598C31.8322 16.9429 31.5256 16.9429 30.9125 16.9429H30.396C29.528 16.9429 29.0527 17.2631 28.3558 17.743L28.3309 17.7601C27.6102 18.2563 26.5577 18.981 24.9301 18.6554C22.7854 18.2262 21.7598 18.3403 21.3176 18.5447C21.1527 18.621 21.0866 18.7014 21.0399 18.7955C20.9778 18.9206 20.9158 19.149 20.9158 19.5514L20.916 19.7028C20.9164 20.5907 20.9167 21.2617 20.7644 21.8735C20.6058 22.5102 20.2906 23.0516 19.9026 23.7181L19.8363 23.8319C19.5844 24.2654 19.5363 24.5054 19.5414 24.6171C19.5431 24.6548 19.5506 24.6869 19.5766 24.7317C19.6069 24.7833 19.6822 24.8842 19.8639 25.019C19.8847 25.0343 19.905 25.0502 19.9246 25.067L21.8346 26.6672Z" fill="white"/>
<path opacity="0.4" d="M22.6502 1.58826C22.4807 1.21915 22.3959 1.03459 22.4703 0.949975C22.5444 0.865292 22.7224 0.920246 23.0785 1.03008C28.573 2.72593 32.5659 7.84721 32.5659 13.9015C32.5659 14.1437 32.3667 14.336 32.1246 14.336H30.3949C28.7043 14.336 27.6563 15.0586 26.9367 15.5548L26.8781 15.5952C26.1813 16.0749 25.9365 16.1985 25.44 16.099C23.2427 15.6594 21.4823 15.5964 20.2237 16.1784C19.5383 16.4952 19.0255 16.9919 18.7057 17.6352C18.4015 18.2479 18.3096 18.9176 18.3096 19.5513C18.3096 20.6588 18.3002 20.9827 18.2354 21.2429C18.1772 21.4767 18.0678 21.6873 17.5833 22.5214C17.2477 23.0984 16.8993 23.8692 16.9377 24.7324C16.9794 25.6751 17.4644 26.4729 18.2781 27.0879C18.3842 27.1768 18.3171 27.3472 18.179 27.3378C11.1774 26.8614 5.64551 21.0279 5.64551 13.9015C5.64551 11.5097 6.26868 9.26357 7.36142 7.31672C7.572 6.94149 7.67726 6.75395 7.8805 6.63496C8.08374 6.51597 8.31765 6.51597 8.78556 6.51597H10.3801C10.9263 6.55449 11.2039 6.73724 12.2085 7.79938C14.32 10.0316 16.7593 10.4874 18.6242 9.50155C19.2988 9.14501 19.7522 8.67623 20.0309 8.11369C20.2523 7.66672 20.3338 7.19772 20.3796 6.93379L20.3939 6.85325C20.4488 6.55195 20.4809 6.48391 20.5065 6.44531C20.5148 6.43245 20.5849 6.32341 20.9263 6.18814C22.0204 5.75433 22.7224 4.89237 22.9409 3.8636C23.1077 3.07855 22.9749 2.29553 22.6502 1.58826Z" fill="white"/>
<path fill-rule="evenodd" clip-rule="evenodd" d="M8.19263 0.526147C8.86131 1.21386 8.84582 2.31351 8.1581 2.98211C5.26338 5.79644 3.47369 9.70983 3.47369 14.038C3.47369 22.5784 10.4586 29.5263 19.1052 29.5263C23.3707 29.5263 27.2321 27.8358 30.0524 25.0939C30.7402 24.4251 31.8397 24.4408 32.5084 25.1284C33.1771 25.8162 33.1617 26.9158 32.4739 27.5844C29.0285 30.9341 24.3071 33 19.1052 33V34.7368H20.8421C21.8013 34.7368 22.5789 35.5144 22.5789 36.4736C22.5789 37.4329 21.8013 38.2104 20.8421 38.2104H13.8947C12.9355 38.2104 12.1579 37.4329 12.1579 36.4736C12.1579 35.5144 12.9355 34.7368 13.8947 34.7368H15.6315V32.6871C6.74742 31.0666 0 23.3438 0 14.038C0 8.72917 2.20031 3.92969 5.73667 0.491546C6.42438 -0.177126 7.52403 -0.161642 8.19263 0.526147Z" fill="white"/>
</svg>
