<svg width="35" height="24" viewBox="0 0 35 24" fill="none" xmlns="http://www.w3.org/2000/svg">
<path d="M31.9378 2.26728L25.2781 6.81514V16.2837L31.9378 20.825C33.226 21.7038 35.0003 20.8075 35.0003 19.2735V3.81933C35.0003 2.29135 33.232 1.3908 31.9378 2.26728ZM16.5282 10.1056H13.0707V6.68277C13.0707 5.93684 12.4753 5.29312 11.667 5.29312C10.8589 5.29312 10.2087 5.93684 10.2087 6.68277V10.1056H6.7513C6.00026 10.1056 5.34766 10.7494 5.34766 11.5494C5.34766 12.3471 5.99965 12.939 6.7513 12.939H10.2087V16.3078C10.2087 17.162 10.8589 17.8057 11.667 17.8057C12.4728 17.8057 13.0707 17.1596 13.0707 16.4161V12.939H16.5282C17.3363 12.939 17.9865 12.3495 17.9865 11.5494C17.9865 10.7494 17.3363 10.1056 16.5282 10.1056Z" fill="white"/>
<path opacity="0.4" d="M20.4166 0H2.91665C1.30581 0 0 1.29277 0 2.88751V20.2126C0 21.8067 1.30581 23.1001 2.91665 23.1001H20.4166C22.0274 23.1001 23.3332 21.8073 23.3332 20.2126V2.88751C23.3332 1.29277 22.0268 0 20.4166 0ZM16.5277 12.9397H13.0703V16.3085C13.0703 17.1627 12.4748 17.8063 11.6666 17.8063C10.8603 17.8063 10.263 17.1602 10.263 16.4167V12.9397H6.75083C5.99919 12.9397 5.3472 12.3501 5.3472 11.55C5.3472 10.7524 5.99979 10.1604 6.75083 10.1604H10.2083V6.68342C10.2083 5.93742 10.8585 5.29377 11.6666 5.29377C12.4748 5.29377 13.0703 5.93987 13.0703 6.68342V10.1063H16.5277C17.3358 10.1063 17.986 10.7499 17.986 11.55C17.986 12.3501 17.3358 12.9397 16.5277 12.9397Z" fill="white"/>
</svg>
