<svg width="41" height="40" viewBox="0 0 41 40" fill="none" xmlns="http://www.w3.org/2000/svg">
<path d="M27.6473 0.116816C24.7828 -0.0443135 21.9113 -0.0387486 19.0474 0.133482C15.8427 0.36774 12.8345 1.76659 10.5901 4.06619C8.34579 6.36579 7.02052 9.40717 6.86427 12.6167C4.83934 13.7717 3.15414 15.4395 1.97806 17.4523C0.801973 19.4651 0.176449 21.752 0.164358 24.0832V35.4497C0.154005 36.3502 0.415742 37.233 0.91532 37.9823C1.4149 38.7317 2.12905 39.3128 2.96432 39.6496C3.53094 39.8791 4.13629 39.998 4.74763 39.9996C5.94878 39.9965 7.09963 39.517 7.94759 38.6663C8.50747 38.126 9.18146 37.7182 9.91989 37.4731C10.6583 37.2279 11.4423 37.1515 12.2142 37.2497C12.2309 37.2497 12.3809 37.2663 12.3975 37.2663C15.2559 37.4385 18.1218 37.444 20.9807 37.283C23.6262 37.1271 26.165 36.186 28.2728 34.5799C30.3806 32.9738 31.9617 30.7757 32.8139 28.2664C33.437 28.781 34.1906 29.1126 34.991 29.2244C35.7913 29.3362 36.6069 29.2239 37.3472 28.8998C38.1857 28.5658 38.9035 27.9858 39.4062 27.2362C39.909 26.4866 40.1731 25.6024 40.1638 24.6998V13.3333C40.1497 9.95164 38.8474 6.70245 36.5221 4.24709C34.1968 1.79173 31.0232 0.314762 27.6473 0.116816ZM15.9975 9.1667C16.8216 9.1667 17.6271 9.41106 18.3123 9.8689C18.9975 10.3267 19.5316 10.9775 19.8469 11.7388C20.1623 12.5002 20.2448 13.3379 20.084 14.1462C19.9233 14.9544 19.5264 15.6968 18.9437 16.2795C18.361 16.8623 17.6186 17.2591 16.8103 17.4199C16.0021 17.5806 15.1643 17.4981 14.403 17.1828C13.6416 16.8674 12.9909 16.3333 12.5331 15.6482C12.0752 14.963 11.8309 14.1574 11.8309 13.3333C11.8322 12.2287 12.2716 11.1696 13.0527 10.3885C13.8338 9.60743 14.8928 9.16802 15.9975 9.1667ZM30.164 13.3333C30.164 14.1574 29.9196 14.963 29.4618 15.6482C29.0039 16.3333 28.3532 16.8674 27.5918 17.1828C26.8305 17.4981 25.9927 17.5806 25.1845 17.4199C24.3762 17.2591 23.6338 16.8623 23.0511 16.2795C22.4684 15.6968 22.0716 14.9544 21.9108 14.1462C21.75 13.3379 21.8325 12.5002 22.1479 11.7388C22.4633 10.9775 22.9973 10.3267 23.6825 9.8689C24.3677 9.41106 25.1733 9.1667 25.9973 9.1667C27.102 9.16802 28.161 9.60743 28.9421 10.3885C29.7232 11.1696 30.1626 12.2287 30.164 13.3333ZM20.7808 33.9497C18.0327 34.1023 15.2782 34.0968 12.5309 33.933L12.3642 33.9164C11.1308 33.7965 9.88608 33.9477 8.71724 34.3594C7.5484 34.7711 6.48367 35.4333 5.59762 36.2997C5.42826 36.479 5.20722 36.601 4.96526 36.6488C4.72329 36.6966 4.47245 36.6678 4.24764 36.5663C4.02221 36.481 3.8289 36.3277 3.69451 36.1276C3.56012 35.9276 3.49132 35.6906 3.49765 35.4497V24.0832C3.50546 22.6082 3.84155 21.1534 4.48152 19.8245C5.12149 18.4955 6.04929 17.3257 7.1976 16.3999C7.87392 19.1672 9.41819 21.6453 11.6044 23.4717C13.7906 25.298 16.504 26.3767 19.3474 26.5498C22.212 26.7109 25.0834 26.7054 27.9473 26.5331L28.264 26.4998C28.7828 26.4655 29.3039 26.4991 29.814 26.5998C29.2751 28.6206 28.1114 30.4194 26.4891 31.7394C24.8668 33.0594 22.8689 33.833 20.7808 33.9497Z" fill="#D4483C"/>
<path d="M15.9974 14.1666C16.4576 14.1666 16.8307 13.7936 16.8307 13.3333C16.8307 12.8731 16.4576 12.5 15.9974 12.5C15.5372 12.5 15.1641 12.8731 15.1641 13.3333C15.1641 13.7936 15.5372 14.1666 15.9974 14.1666Z" fill="#D4483C"/>
<path d="M25.9974 14.1666C26.4576 14.1666 26.8307 13.7936 26.8307 13.3333C26.8307 12.8731 26.4576 12.5 25.9974 12.5C25.5372 12.5 25.1641 12.8731 25.1641 13.3333C25.1641 13.7936 25.5372 14.1666 25.9974 14.1666Z" fill="#D4483C"/>
</svg>
