<svg width="37" height="30" viewBox="0 0 37 30" fill="none" xmlns="http://www.w3.org/2000/svg">
<path fill-rule="evenodd" clip-rule="evenodd" d="M17.5291 0.880084C18.2765 1.18964 18.7638 1.91893 18.7638 2.72785V26.7278C18.7638 27.5368 18.2765 28.266 17.5291 28.5756C16.7818 28.8852 15.9216 28.714 15.3495 28.142L7.9353 20.7278H2.76369C1.65912 20.7278 0.763672 19.8324 0.763672 18.7278V10.7279C0.763672 9.62327 1.65912 8.72785 2.76369 8.72785H7.9353L15.3495 1.31362C15.9216 0.741624 16.7818 0.570524 17.5291 0.880084Z" fill="#D4483C"/>
<path fill-rule="evenodd" clip-rule="evenodd" d="M28.0766 0.585781C28.8578 -0.19526 30.124 -0.19526 30.9052 0.585781C34.5222 4.20288 36.763 9.20563 36.763 14.7279C36.763 20.2502 34.5222 25.253 30.9052 28.87C30.124 29.6511 28.8578 29.6511 28.0766 28.87C27.2956 28.089 27.2956 26.8226 28.0766 26.0416C30.9744 23.144 32.763 19.1468 32.763 14.7279C32.763 10.3091 30.9744 6.31183 28.0766 3.4142C27.2956 2.63316 27.2956 1.36682 28.0766 0.585781ZM22.4197 6.24265C23.2007 5.46159 24.4672 5.46159 25.2482 6.24265C26.3 7.29441 27.1582 8.54177 27.7636 9.92719C28.407 11.3999 28.763 13.025 28.763 14.7279C28.763 18.041 27.4176 21.0438 25.2482 23.2132C24.4672 23.9942 23.2007 23.9942 22.4197 23.2132C21.6387 22.4322 21.6387 21.1658 22.4197 20.3848C23.8697 18.9348 24.763 16.9376 24.763 14.7279C24.763 13.5865 24.5252 12.5058 24.0981 11.5287C23.6955 10.6072 23.1233 9.77457 22.4197 9.07107C21.6387 8.29003 21.6387 7.02369 22.4197 6.24265Z" fill="#D4483C"/>
</svg>
