<svg width="37" height="45" viewBox="0 0 37 45" fill="none" xmlns="http://www.w3.org/2000/svg">
<path d="M29.3314 6.10305C25.5188 4.16187 24.4317 2.50022 24.1212 1.67716C23.7407 0.675523 22.7312 0 21.6053 0C20.1067 0 18.8876 1.2113 18.8876 2.70211V22.8282C17.4278 22.2304 15.8127 22.0906 14.2209 22.4323C11.278 23.0767 8.91746 25.4838 8.34286 28.4266C7.04378 34.9465 14.049 39.8152 19.8272 36.7114C22.3096 35.475 23.8228 32.8028 23.7018 29.9562V7.99764C24.5793 8.67317 26.008 9.68257 28.3453 11.2355C32.9809 14.3181 31.9404 19.373 30.9077 22.1061C30.4573 23.3019 31.063 24.6374 32.251 25.0956C33.3769 25.5148 34.6582 25.0101 35.1784 23.9231C36.25 21.6791 36.778 19.4584 36.778 17.3541C36.778 12.672 34.1767 8.57223 29.3314 6.10305Z" fill="#D4483C"/>
<path d="M15.9488 41.4494C22.3245 41.4494 27.5112 36.2924 27.5112 29.9536C27.5112 29.5248 27.1635 29.1771 26.7347 29.1771C26.3059 29.1771 25.9582 29.5248 25.9582 29.9536C25.4092 43.1441 6.48606 43.1398 5.93931 29.9535C5.93933 26.9762 7.26634 24.1805 9.58027 22.2822C10.364 21.6401 9.38177 20.4387 8.59521 21.0818C0.268439 27.8999 5.18722 41.4486 15.9488 41.4494Z" fill="#D4483C"/>
<path d="M29.793 25.9499C29.3756 26.0473 29.1159 26.4651 29.2137 26.8825C29.4472 27.8831 29.5659 28.9166 29.5659 29.9539C28.8191 47.9019 3.07379 47.8953 2.3303 29.9538C2.33033 29.5251 1.98265 29.1774 1.55383 29.1774C1.12502 29.1774 0.777344 29.5251 0.777344 29.9539C1.61075 49.9633 30.2903 49.9538 31.1189 29.9538C31.1189 28.7976 30.9866 27.6454 30.7257 26.5292C30.6283 26.111 30.2089 25.8528 29.793 25.9499Z" fill="#D4483C"/>
</svg>
