<svg width="27" height="41" viewBox="0 0 27 41" fill="none" xmlns="http://www.w3.org/2000/svg">
<path d="M26.5 20.9817C26.5 20.1692 25.8787 19.5479 25.0662 19.5479C24.2537 19.5479 23.6324 20.1692 23.6324 20.9817C23.6324 26.5736 19.0919 31.114 13.5 31.114C7.90809 31.114 3.36765 26.5736 3.36765 20.9817C3.36765 20.1692 2.74632 19.5479 1.93382 19.5479C1.12132 19.5479 0.5 20.1692 0.5 20.9817C0.5 27.625 5.47059 33.2169 12.0662 33.9339V37.7574H6.85662C6.04412 37.7574 5.42279 38.3787 5.42279 39.1912C5.42279 40.0037 6.04412 40.625 6.85662 40.625H20.1434C20.9559 40.625 21.5772 40.0037 21.5772 39.1912C21.5772 38.3787 20.9559 37.7574 20.1434 37.7574H14.9338V33.9339C21.5294 33.2169 26.5 27.625 26.5 20.9817Z" fill="#D4483C"/>
<path d="M13.5012 0C9.10409 0 5.51953 3.58455 5.51953 7.9816V20.9338C5.51953 25.3786 9.10409 28.9154 13.5012 28.9632C17.8982 28.9632 21.4828 25.3786 21.4828 20.9816V7.9816C21.4828 3.58455 17.8982 0 13.5012 0Z" fill="#D4483C"/>
</svg>
