<svg width="37" height="37" viewBox="0 0 37 37" fill="none" xmlns="http://www.w3.org/2000/svg">
<path d="M36.6016 4.01433V26.0993C36.6016 29.516 33.2839 32.289 29.1987 32.289C25.1135 32.289 21.7958 29.516 21.7958 26.0993C21.7256 20.5948 29.9027 18.0743 34.1256 21.4941V11.4296L15.4078 15.3663V30.5435C15.4078 33.9603 12.0901 36.7333 8.00493 36.7333C3.91972 36.7333 0.602012 33.9603 0.602012 30.5435C0.531776 25.0393 8.70896 22.5183 12.9319 25.9384V7.29493C12.9346 6.37266 13.253 5.47912 13.8341 4.76292C14.4152 4.04672 15.2239 3.55102 16.1258 3.35826L31.7736 0.0776767C32.3573 -0.0384836 32.9595 -0.0242097 33.5371 0.119478C34.1148 0.263165 34.6535 0.532715 35.1148 0.90885C35.5761 1.28498 35.9486 1.75841 36.2056 2.29526C36.4626 2.83212 36.5978 3.41914 36.6016 4.01433Z" fill="#D4483C"/>
</svg>
