<svg width="41" height="39" viewBox="0 0 41 39" fill="none" xmlns="http://www.w3.org/2000/svg">
<path d="M2.82121 14.1354C2.11683 14.1365 1.4416 14.4168 0.943521 14.9148C0.445444 15.4129 0.165147 16.0881 0.164062 16.7925V21.7211C0.164063 22.4249 0.443635 23.0998 0.941278 23.5974C1.43892 24.0951 2.11387 24.3746 2.81764 24.3746C3.52141 24.3746 4.19636 24.0951 4.694 23.5974C5.19165 23.0998 5.47122 22.4249 5.47122 21.7211V16.7925C5.47175 16.0889 5.19295 15.4138 4.69607 14.9156C4.19919 14.4174 3.52486 14.1367 2.82121 14.1354Z" fill="#D4483C"/>
<path d="M11.4931 9.97131C10.7887 9.9724 10.1135 10.2527 9.6154 10.7508C9.11732 11.2488 8.83702 11.9241 8.83594 12.6285V25.8856C8.83594 26.5893 9.11551 27.2643 9.61315 27.7619C10.1108 28.2596 10.7857 28.5391 11.4895 28.5391C12.1933 28.5391 12.8682 28.2596 13.3659 27.7619C13.8635 27.2643 14.1431 26.5893 14.1431 25.8856V12.6285C14.1436 11.9248 13.8648 11.2497 13.3679 10.7515C12.8711 10.2533 12.1967 9.97269 11.4931 9.97131Z" fill="#D4483C"/>
<path d="M20.165 0C19.4606 0.00109378 18.7854 0.281393 18.2873 0.779466C17.7892 1.27754 17.5089 1.95276 17.5078 2.65714V35.8571C17.5064 36.2069 17.5741 36.5536 17.707 36.8772C17.8399 37.2008 18.0354 37.495 18.2823 37.7429C18.5292 37.9907 18.8226 38.1874 19.1456 38.3216C19.4687 38.4558 19.8151 38.5249 20.165 38.5249C20.5148 38.5249 20.8612 38.4558 21.1843 38.3216C21.5073 38.1874 21.8007 37.9907 22.0476 37.7429C22.2945 37.495 22.49 37.2008 22.6229 36.8772C22.7558 36.5536 22.8235 36.2069 22.8221 35.8571V2.65714C22.821 1.95277 22.5407 1.27755 22.0426 0.779481C21.5446 0.281409 20.8694 0.00110512 20.165 0Z" fill="#D4483C"/>
<path d="M28.8356 4.91406C28.1319 4.91544 27.4576 5.19606 26.9607 5.69428C26.4638 6.1925 26.185 6.86757 26.1855 7.5712V30.9426C26.1855 31.6464 26.4651 32.3213 26.9628 32.819C27.4604 33.3166 28.1354 33.5962 28.8391 33.5962C29.5429 33.5962 30.2178 33.3166 30.7155 32.819C31.2131 32.3213 31.4927 31.6464 31.4927 30.9426V7.5712C31.4916 6.86682 31.2113 6.1916 30.7132 5.69353C30.2152 5.19546 29.5399 4.91516 28.8356 4.91406Z" fill="#D4483C"/>
<path d="M37.5074 9.25C36.8038 9.25136 36.1295 9.53198 35.6326 10.0302C35.1357 10.5284 34.8569 11.2035 34.8574 11.9071V26.6071C34.8574 27.3109 35.137 27.9858 35.6346 28.4835C36.1323 28.9811 36.8072 29.2607 37.511 29.2607C38.2148 29.2607 38.8897 28.9811 39.3874 28.4835C39.885 27.9858 40.1646 27.3109 40.1646 26.6071V11.9071C40.1635 11.2028 39.8832 10.5275 39.3851 10.0295C38.887 9.53138 38.2118 9.25109 37.5074 9.25Z" fill="#D4483C"/>
</svg>
