<svg width="40" height="41" viewBox="0 0 40 41" fill="none" xmlns="http://www.w3.org/2000/svg">
<path d="M25.1252 23.5584C24.6824 23.5584 24.2752 23.7219 23.9787 24.018L19.879 28.1172C14.765 26.6304 12.7238 22.4864 12.0539 20.6486L16.4853 16.2172C17.0117 15.6908 17.0848 14.9555 16.7024 14.0321C15.8214 11.9055 10.0923 3.85693 6.8567 3.85693C6.27821 3.85693 5.74222 4.07444 5.34651 4.47015L1.033 8.78366C-1.69585 11.513 1.04122 24.0185 8.54052 31.5173C14.4976 37.4745 22.5827 40.1873 27.5739 40.1873C29.3605 40.1869 30.6317 39.8222 31.3519 39.1016L35.6654 34.7886C35.9752 34.4788 36.6318 33.6042 36.041 32.1781C34.8502 29.3044 27.1997 23.5584 25.1252 23.5584ZM27.5739 37.3511C23.8818 37.4457 16.2975 35.2638 10.546 29.5118C3.32775 22.2935 2.18951 12.1148 3.05907 10.7681L7.04633 6.78089C7.66731 7.10029 12.0708 10.6238 13.9201 14.7719L9.68515 19.0063C9.15602 19.5359 8.96547 20.3095 9.18846 21.0255C9.77106 22.8935 12.2463 29.1326 19.6382 30.9896C19.7968 31.0293 20.41 31.5859 21.5469 30.4595L25.4432 26.5636C27.3893 27.5027 32.5545 31.457 33.3546 33.0874C33.3551 33.0874 29.663 37.2976 27.5739 37.3511Z" fill="white"/>
<path d="M36.2374 0H21.2073C19.1744 0 17.6094 1.63036 17.6094 3.66283V9.90189C17.6094 10.6851 18.197 11.3198 18.9802 11.3198C19.7634 11.3198 20.351 10.6851 20.351 9.90189V3.66283C20.351 3.19401 20.738 2.74164 21.2073 2.74164H36.2374C36.7067 2.74164 37.2578 3.19401 37.2578 3.66283V28.0515C37.2578 28.8347 37.8454 29.4694 38.6286 29.4694C39.4118 29.4694 39.9994 28.8347 39.9994 28.0515V3.66283C39.9994 1.63036 38.2704 0 36.2374 0Z" fill="white"/>
<path d="M24.8984 8.68198H32.2715C33.0547 8.68198 33.6894 7.86588 33.6894 7.08269C33.6894 6.29949 33.0547 5.4834 32.2715 5.4834H24.8984C24.1152 5.4834 23.4805 6.29949 23.4805 7.08269C23.4805 7.86588 24.1152 8.68198 24.8984 8.68198Z" fill="white"/>
<path d="M24.8984 14.622H32.2715C33.0547 14.622 33.6894 14.0344 33.6894 13.2512C33.6894 12.468 33.0547 11.8804 32.2715 11.8804H24.8984C24.1152 11.8804 23.4805 12.468 23.4805 13.2512C23.4805 14.0344 24.1152 14.622 24.8984 14.622Z" fill="white"/>
<path d="M24.8984 21.0192H32.2715C33.0547 21.0192 33.6894 20.4316 33.6894 19.6484C33.6894 18.8652 33.0547 18.2776 32.2715 18.2776H24.8984C24.1152 18.2776 23.4805 18.8652 23.4805 19.6484C23.4805 20.4316 24.1152 21.0192 24.8984 21.0192Z" fill="white"/>
</svg>
