<svg width="18" height="18" viewBox="0 0 18 18" fill="none" xmlns="http://www.w3.org/2000/svg">
<path d="M9 0C10.2656 0 11.3906 0.738281 11.9531 1.82812C13.1133 1.44141 14.4492 1.72266 15.3633 2.63672C16.2773 3.55078 16.5586 4.88672 16.1719 6.04688C17.2617 6.60938 18 7.73438 18 9C18 10.3008 17.2617 11.4258 16.1719 11.9883C16.5586 13.1484 16.2773 14.4492 15.3633 15.3633C14.4492 16.2773 13.1133 16.5586 11.9531 16.207C11.3906 17.2969 10.2656 18 9 18C7.69922 18 6.57422 17.2969 6.01172 16.207C4.85156 16.5586 3.55078 16.2773 2.63672 15.3633C1.72266 14.4492 1.44141 13.1484 1.79297 11.9883C0.703125 11.4258 0 10.3008 0 9C0 7.73438 0.703125 6.60938 1.79297 6.04688C1.44141 4.88672 1.72266 3.55078 2.63672 2.63672C3.55078 1.72266 4.85156 1.44141 6.01172 1.82812C6.57422 0.738281 7.69922 0 9 0ZM12.9727 7.34766C13.2891 7.03125 13.2891 6.50391 12.9727 6.1875C12.6211 5.83594 12.0938 5.83594 11.7773 6.1875L7.875 10.0898L6.22266 8.4375C5.87109 8.08594 5.34375 8.08594 5.02734 8.4375C4.67578 8.75391 4.67578 9.28125 5.02734 9.59766L7.27734 11.8477C7.59375 12.1992 8.12109 12.1992 8.47266 11.8477L12.9727 7.34766Z" fill="url(#paint0_linear_213_117)"/>
<defs>
<linearGradient id="paint0_linear_213_117" x1="9" y1="-16.25" x2="9" y2="33.75" gradientUnits="userSpaceOnUse">
<stop offset="0.38" stop-color="#D4483C"/>
<stop offset="1" stop-color="#4388DD"/>
</linearGradient>
</defs>
</svg>
