<svg width="51" height="44" viewBox="0 0 51 44" fill="none" xmlns="http://www.w3.org/2000/svg">
<path d="M26.9929 24.684C26.8299 24.5197 26.6359 24.3892 26.4222 24.3002C26.2085 24.2111 25.9793 24.1653 25.7477 24.1653C25.5162 24.1653 25.287 24.2111 25.0733 24.3002C24.8596 24.3892 24.6656 24.5197 24.5026 24.684L19.2413 29.9453C19.0778 30.1088 18.9481 30.3029 18.8596 30.5166C18.7711 30.7302 18.7256 30.9592 18.7256 31.1904C18.7256 31.4217 18.7711 31.6507 18.8596 31.8643C18.9481 32.0779 19.0778 32.2721 19.2413 32.4356C19.5716 32.7658 20.0195 32.9514 20.4865 32.9514C20.7178 32.9514 20.9467 32.9058 21.1604 32.8173C21.374 32.7288 21.5681 32.5991 21.7317 32.4356L23.994 30.1557V41.7129C23.994 42.178 24.1788 42.6241 24.5077 42.953C24.8365 43.2819 25.2826 43.4666 25.7477 43.4666C26.2129 43.4666 26.6589 43.2819 26.9878 42.953C27.3167 42.6241 27.5015 42.178 27.5015 41.7129V30.1557L29.7638 32.4356C29.9268 32.6 30.1208 32.7304 30.3345 32.8195C30.5482 32.9085 30.7775 32.9543 31.009 32.9543C31.2405 32.9543 31.4697 32.9085 31.6834 32.8195C31.8971 32.7304 32.0911 32.6 32.2541 32.4356C32.4185 32.2726 32.549 32.0786 32.638 31.8649C32.727 31.6512 32.7729 31.4219 32.7729 31.1904C32.7729 30.9589 32.727 30.7297 32.638 30.516C32.549 30.3023 32.4185 30.1083 32.2541 29.9453L26.9929 24.684Z" fill="url(#paint0_linear_82_1069)"/>
<path d="M40.6377 15.4068C40.6377 11.4533 39.0672 7.66168 36.2716 4.86611C33.476 2.07054 29.6844 0.5 25.7309 0.5C21.7773 0.5 17.9857 2.07054 15.1901 4.86611C12.3946 7.66168 10.824 11.4533 10.824 15.4068C8.0333 15.5254 5.40398 16.7478 3.5145 18.805C1.62503 20.8622 0.63016 23.5858 0.748767 26.3765C0.867373 29.1672 2.08973 31.7965 4.14695 33.686C6.20416 35.5755 8.92771 36.5704 11.7184 36.4518H15.2259C15.691 36.4518 16.1371 36.267 16.466 35.9381C16.7949 35.6092 16.9797 35.1631 16.9797 34.698C16.9797 34.2329 16.7949 33.7868 16.466 33.4579C16.1371 33.129 15.691 32.9443 15.2259 32.9443H11.7184C10.677 32.9419 9.64918 32.7077 8.70955 32.2586C7.76991 31.8096 6.94205 31.157 6.28604 30.3481C5.63004 29.5393 5.16236 28.5945 4.91694 27.5824C4.67153 26.5703 4.65454 25.5163 4.86721 24.4968C5.07988 23.4773 5.51687 22.518 6.14646 21.6884C6.77606 20.8588 7.58246 20.1799 8.50713 19.7008C9.43181 19.2217 10.4516 18.9544 11.4924 18.9185C12.5332 18.8826 13.5689 19.0788 14.5244 19.4931C14.7436 19.5972 14.9833 19.6511 15.2259 19.6509C15.6243 19.6452 16.0088 19.504 16.3162 19.2506C16.6236 18.9972 16.8356 18.6467 16.9172 18.2568C16.9989 17.8669 16.9453 17.4608 16.7654 17.1054C16.5855 16.7499 16.29 16.4663 15.9274 16.3012C15.4296 16.0758 14.9133 15.8939 14.3841 15.7576C14.3841 12.7343 15.5851 9.83482 17.7229 7.69703C19.8607 5.55924 22.7602 4.35824 25.7835 4.35824C28.8068 4.35824 31.7062 5.55924 33.844 7.69703C35.9818 9.83482 37.1828 12.7343 37.1828 15.7576C36.6537 15.8939 36.1373 16.0758 35.6395 16.3012C35.277 16.4663 34.9814 16.7499 34.8015 17.1054C34.6216 17.4608 34.5681 17.8669 34.6497 18.2568C34.7314 18.6467 34.9434 18.9972 35.2508 19.2506C35.5582 19.504 35.9427 19.6452 36.341 19.6509C36.5837 19.6511 36.8233 19.5972 37.0425 19.4931C38.0007 19.0778 39.0396 18.8816 40.0833 18.919C41.1269 18.9564 42.1491 19.2263 43.0752 19.7091C44.0012 20.1919 44.8078 20.8754 45.436 21.7097C46.0642 22.544 46.4982 23.508 46.7064 24.5314C46.9145 25.5547 46.8915 26.6117 46.6391 27.6251C46.3867 28.6385 45.9112 29.5827 45.2473 30.3889C44.5834 31.195 43.7479 31.8428 42.8018 32.2849C41.8556 32.727 40.8227 32.9523 39.7784 32.9443H36.2709C35.8057 32.9443 35.3597 33.129 35.0308 33.4579C34.7019 33.7868 34.5171 34.2329 34.5171 34.698C34.5171 35.1631 34.7019 35.6092 35.0308 35.9381C35.3597 36.267 35.8057 36.4518 36.2709 36.4518H39.7784C41.1602 36.5082 42.5396 36.2919 43.8378 35.8152C45.1361 35.3385 46.3277 34.6108 47.3447 33.6736C48.3617 32.7364 49.1842 31.6081 49.7651 30.353C50.346 29.098 50.6741 27.7408 50.7305 26.359C50.7869 24.9771 50.5706 23.5977 50.0939 22.2995C49.6173 21.0012 48.8895 19.8096 47.9523 18.7926C47.0151 17.7756 45.8868 16.9532 44.6318 16.3722C43.3767 15.7913 42.0195 15.4633 40.6377 15.4068Z" fill="url(#paint1_linear_82_1069)"/>
<defs>
<linearGradient id="paint0_linear_82_1069" x1="25.7492" y1="24.1653" x2="25.7492" y2="43.4666" gradientUnits="userSpaceOnUse">
<stop stop-color="#D4483C"/>
<stop offset="1" stop-color="#4388DD"/>
</linearGradient>
<linearGradient id="paint1_linear_82_1069" x1="25.7393" y1="0.5" x2="25.7393" y2="36.4613" gradientUnits="userSpaceOnUse">
<stop stop-color="#D4483C"/>
<stop offset="1" stop-color="#4388DD"/>
</linearGradient>
</defs>
</svg>
