<svg width="50" height="50" viewBox="0 0 50 50" fill="none" xmlns="http://www.w3.org/2000/svg">
<path d="M25 0C11.2345 0 0 11.2353 0 25C0 38.7655 11.2353 50 25 50C38.7655 50 50 38.7647 50 25C50 11.2345 38.7647 0 25 0ZM17.5428 4.22754C15.8275 6.4083 14.5811 9.10449 13.7186 11.7188H7.38486C9.94961 8.32559 13.4702 5.69404 17.5428 4.22754ZM5.51289 14.6387H12.8896C12.227 17.4157 11.8357 20.4304 11.7418 23.5352H2.97949C3.18984 20.3411 4.08232 17.321 5.51289 14.6387ZM5.51289 35.3516C4.08232 32.6692 3.18984 29.6589 2.97949 26.4648H11.7418C11.8357 29.5696 12.227 32.5745 12.8896 35.3516H5.51289ZM7.38486 38.2812H13.7185C14.5808 40.8948 15.8272 43.5914 17.5428 45.7725C13.4702 44.306 9.94961 41.6744 7.38486 38.2812ZM23.5352 46.8217C20.2646 45.7223 18.0096 41.5234 16.8186 38.2812H23.5352V46.8217ZM23.5352 35.3516H15.9067C15.1948 32.6138 14.7729 29.6012 14.6727 26.4648H23.5352V35.3516ZM23.5352 23.5352H14.6727C14.773 20.3988 15.1949 17.3862 15.9067 14.6484H23.5352V23.5352ZM23.5352 11.7188H16.8186C18.0095 8.47666 20.2646 4.27773 23.5352 3.17832V11.7188ZM44.4871 14.6484C45.9178 17.3308 46.8102 20.3411 47.0205 23.5352H38.2582C38.1643 20.4304 37.773 17.4255 37.1104 14.6484H44.4871ZM42.6151 11.7188H36.2815C35.4192 9.10518 34.1728 6.40859 32.4572 4.22754C36.5298 5.69404 40.0504 8.32559 42.6151 11.7188ZM26.4648 3.17832C29.7354 4.27773 31.9904 8.47656 33.1814 11.7188H26.4648V3.17832ZM26.4648 14.6484H34.0933C34.8052 17.3862 35.2271 20.3988 35.3273 23.5352H26.4648V14.6484ZM26.4648 26.4551H35.3273C35.227 29.5914 34.8051 32.6138 34.0933 35.3516H26.4648V26.4551ZM26.4648 46.8217V38.2715H33.1814C31.9905 41.5136 29.7354 45.7223 26.4648 46.8217ZM32.4572 45.7725C34.1725 43.5917 35.4189 40.8856 36.2815 38.2715H42.6151C40.0504 41.6646 36.5298 44.306 32.4572 45.7725ZM44.4871 35.3516H37.1104C37.773 32.5745 38.1643 29.5599 38.2582 26.4551H47.0205C46.8102 29.6491 45.9177 32.6692 44.4871 35.3516Z" fill="url(#paint0_linear_82_1060)"/>
<defs>
<linearGradient id="paint0_linear_82_1060" x1="25" y1="0" x2="25" y2="50" gradientUnits="userSpaceOnUse">
<stop stop-color="#D4483C"/>
<stop offset="1" stop-color="#4388DD"/>
</linearGradient>
</defs>
</svg>
