<svg width="50" height="50" viewBox="0 0 50 50" fill="none" xmlns="http://www.w3.org/2000/svg">
<path d="M49.5315 3.15686L49.3191 1.98812C49.1989 1.32699 48.6816 0.809808 48.0206 0.689537L46.8519 0.477122C41.8831 -0.426073 36.7402 -0.0178759 31.9798 1.65826C25.786 3.83897 21.7237 7.42745 18.1448 11.8744L16.2546 11.2256C13.1883 10.1727 9.79331 10.8739 7.39451 13.0548L1.42488 18.4819C-1.4566 21.1014 0.31515 25.9093 4.20888 26.0306L9.48926 26.1952C9.21727 27.8349 9.73695 29.5451 10.9565 30.7645L19.2451 39.0536C20.4234 40.2319 22.115 40.8032 23.8145 40.5212L23.979 45.8015C24.1006 49.7064 28.9167 51.4576 31.5275 48.5854L36.9544 42.6156C39.1353 40.2168 39.8361 36.8216 38.7836 33.7553L38.1348 31.8649C42.4652 28.3795 46.1153 24.379 48.3506 18.0296C50.0266 13.2687 50.435 8.12579 49.5315 3.15686ZM3.59474 20.8689L9.56436 15.4418C11.0921 14.0531 13.2544 13.6066 15.2072 14.2769L16.0789 14.5761C14.1961 17.168 12.425 19.9903 10.837 23.0095L4.30918 22.8061C3.30561 22.7748 2.85135 21.5448 3.59474 20.8689ZM35.7323 34.8025C36.4026 36.7555 35.9563 38.9177 34.5673 40.4455L29.1403 46.4153C28.465 47.1584 27.2345 46.7052 27.2033 45.701L26.9998 39.173C29.935 37.6292 32.7545 35.8767 35.433 33.9308L35.7323 34.8025ZM37.6845 28.0452C33.482 31.6501 28.8248 34.7169 23.8422 37.1607C23.0687 37.54 22.1378 37.384 21.5262 36.7722C21.5364 36.7722 21.6014 36.8476 13.2374 28.4832C12.6258 27.8716 12.4697 26.9407 12.8491 26.1671C13.2623 25.3244 13.6949 24.4919 14.1434 23.6684L22.8931 32.4184C23.5231 33.0484 24.5442 33.0483 25.1742 32.4184C25.804 31.7885 25.804 30.7671 25.1742 30.1373L15.8136 20.7766C17.6967 17.7016 19.7706 14.8722 22.0968 12.1703C27.9339 5.40764 37.1127 1.98873 46.3448 3.66376C47.9743 12.645 44.8372 21.8926 37.6845 28.0452ZM28.5164 11.6601C24.145 16.0315 27.268 23.5261 33.4327 23.5261C39.5917 23.5261 42.7255 16.0366 38.3489 11.6601C35.6379 8.94914 31.2274 8.94914 28.5164 11.6601ZM36.0678 19.2117C34.6147 20.6647 32.2506 20.6647 30.7975 19.2117C29.3445 17.7587 29.3445 15.3943 30.7975 13.9413C32.2507 12.4882 34.6147 12.4882 36.0678 13.9413C37.5208 15.3943 37.5208 17.7587 36.0678 19.2117ZM2.47694 37.7321C1.84697 37.1022 1.84697 36.0809 2.47694 35.451L4.56565 33.3623C5.19551 32.7324 6.21683 32.7324 6.8467 33.3623C7.47667 33.9922 7.47667 35.0135 6.8467 35.6434L4.75799 37.7322C4.12803 38.3621 3.10681 38.3621 2.47694 37.7321ZM16.7277 43.2436C17.3577 43.8735 17.3577 44.8948 16.7277 45.5247L14.6391 47.6135C14.3241 47.9284 13.9113 48.086 13.4985 48.086C12.0746 48.086 11.3388 46.3515 12.3579 45.3325L14.4465 43.2437C15.0766 42.6137 16.0978 42.6135 16.7277 43.2436ZM13.2044 39.0864L6.11229 46.1788C5.48222 46.8088 4.46111 46.8088 3.83124 46.1788C3.20127 45.5489 3.20127 44.5276 3.83124 43.8977L10.9234 36.8052C11.5534 36.1753 12.5746 36.1753 13.2044 36.8052C13.8344 37.4352 13.8344 38.4565 13.2044 39.0864Z" fill="url(#paint0_linear_82_1048)"/>
<defs>
<linearGradient id="paint0_linear_82_1048" x1="25" y1="0.00878906" x2="25" y2="50.0088" gradientUnits="userSpaceOnUse">
<stop stop-color="#D4483C"/>
<stop offset="1" stop-color="#4388DD"/>
</linearGradient>
</defs>
</svg>
