<svg width="51" height="53" viewBox="0 0 51 53" fill="none" xmlns="http://www.w3.org/2000/svg">
<path d="M23.805 0.755859C15.6012 0.755859 8.90891 7.47103 8.90891 15.6748C8.90891 20.6897 11.4183 25.1329 15.2372 27.8357C6.32975 31.4048 0.0107422 40.1141 0.0107422 50.2761C0.024372 50.8903 0.277904 51.4746 0.717053 51.9041C1.1562 52.3336 1.74606 52.5743 2.36034 52.5743C2.97461 52.5743 3.56447 52.3336 4.00362 51.9041C4.44277 51.4746 4.6963 50.8903 4.70993 50.2761C4.70993 39.4914 13.4056 30.8002 24.1905 30.8002C27.9551 30.8002 31.4496 31.8735 34.424 33.7144C34.6874 33.8779 34.9804 33.9878 35.2864 34.0379C35.5923 34.0881 35.9052 34.0774 36.207 34.0065C36.5088 33.9356 36.7936 33.8058 37.0452 33.6247C37.2968 33.4435 37.5102 33.2147 37.6731 32.9509C37.8361 32.6872 37.9454 32.3938 37.9949 32.0878C38.0443 31.7817 38.0329 31.4688 37.9613 31.1672C37.8897 30.8655 37.7592 30.5809 37.5775 30.3298C37.3957 30.0786 37.1662 29.8658 36.9021 29.7035C35.5618 28.874 34.1069 28.2247 32.6068 27.666C36.3025 24.9494 38.724 20.5896 38.724 15.6748C38.724 7.47103 32.0088 0.755859 23.805 0.755859ZM23.805 5.45946C29.4691 5.45946 34.0248 10.0106 34.0248 15.6748C34.0248 21.3389 29.4691 25.8717 23.805 25.8717C18.1408 25.8717 13.6081 21.3389 13.6081 15.6748C13.6081 10.0106 18.1408 5.45946 23.805 5.45946ZM47.5854 33.6594C47.2035 33.6704 46.8301 33.7741 46.4974 33.9621C46.1648 34.15 45.8829 34.4163 45.6764 34.7377L37.5767 46.8758L32.4966 43.4752C32.239 43.302 31.9498 43.1814 31.6455 43.1202C31.3411 43.059 31.0277 43.0584 30.7232 43.1186C30.4187 43.1787 30.129 43.2986 29.8708 43.4709C29.6126 43.6432 29.391 43.8648 29.2186 44.1229C29.0462 44.3811 28.9265 44.6705 28.8662 44.975C28.806 45.2795 28.8064 45.5931 28.8675 45.8975C28.9286 46.2018 29.0491 46.4911 29.2223 46.7487C29.3954 47.0064 29.6176 47.2273 29.8763 47.3989L36.9388 52.0981C37.1961 52.2688 37.4845 52.3872 37.7875 52.4464C38.0906 52.5055 38.4023 52.5042 38.7049 52.4428C39.0075 52.3815 39.295 52.2612 39.551 52.0886C39.8071 51.9161 40.0266 51.6948 40.1971 51.4374L49.6 37.3353C49.8452 36.977 49.9864 36.5578 50.0079 36.1242C50.0293 35.6905 49.9302 35.2593 49.7215 34.8786C49.5129 34.4979 49.2028 34.1824 48.8258 33.9672C48.4487 33.752 48.0194 33.6454 47.5854 33.6594Z" fill="url(#paint0_linear_82_1055)"/>
<defs>
<linearGradient id="paint0_linear_82_1055" x1="25.0107" y1="0.755859" x2="25.0107" y2="52.5743" gradientUnits="userSpaceOnUse">
<stop stop-color="#4388DD"/>
<stop offset="1" stop-color="#D4483C"/>
</linearGradient>
</defs>
</svg>
