<svg width="41" height="26" viewBox="0 0 41 26" fill="none" xmlns="http://www.w3.org/2000/svg">
<path d="M20.8749 19.0901C24.2759 19.0901 27.033 16.333 27.033 12.932C27.033 9.53099 24.2759 6.77393 20.8749 6.77393C17.4739 6.77393 14.7168 9.53099 14.7168 12.932C14.7168 16.333 17.4739 19.0901 20.8749 19.0901Z" fill="#D4483C"/>
<path d="M40.2615 11.2262C35.528 5.50609 28.3626 0 20.8751 0C13.3861 0 6.2191 5.50994 1.48869 11.2262C0.670436 12.2146 0.670436 13.6494 1.48869 14.6378C2.67797 16.0749 5.17122 18.8491 8.50121 21.2731C16.8877 27.3782 24.8441 27.3917 33.249 21.2731C36.579 18.8491 39.0722 16.0749 40.2615 14.6378C41.0774 13.6513 41.0816 12.2178 40.2615 11.2262ZM20.8751 4.31066C25.6291 4.31066 29.4964 8.17793 29.4964 12.932C29.4964 17.686 25.6291 21.5533 20.8751 21.5533C16.1211 21.5533 12.2538 17.686 12.2538 12.932C12.2538 8.17793 16.1211 4.31066 20.8751 4.31066Z" fill="#D4483C"/>
</svg>
