<svg width="21" height="24" viewBox="0 0 21 24" fill="none" xmlns="http://www.w3.org/2000/svg">
<path fill-rule="evenodd" clip-rule="evenodd" d="M5.16406 13.7151C2.40264 13.7151 0.164062 15.9537 0.164062 18.7151C0.164062 21.4765 2.40264 23.7151 5.16406 23.7151C7.92544 23.7151 10.1641 21.4765 10.1641 18.7151C10.1641 15.9537 7.92544 13.7151 5.16406 13.7151Z" fill="#D4483C"/>
<path fill-rule="evenodd" clip-rule="evenodd" d="M10.1641 1.84009V19.0276H7.66406V1.84009H10.1641Z" fill="#D4483C"/>
<path fill-rule="evenodd" clip-rule="evenodd" d="M9.99381 0.196555C8.81044 -0.0992953 7.66406 0.795755 7.66406 2.01558V5.7271C7.66406 6.58748 8.24956 7.33745 9.08431 7.54612L17.8343 9.73362C19.0177 10.0295 20.1641 9.13443 20.1641 7.9146V4.20308C20.1641 3.3427 19.5786 2.59273 18.7438 2.38405L9.99381 0.196555Z" fill="#D4483C"/>
</svg>
