<svg width="35" height="35" viewBox="0 0 35 35" fill="none" xmlns="http://www.w3.org/2000/svg">
<path fill-rule="evenodd" clip-rule="evenodd" d="M20.9845 2.89997C22.5296 3.26769 24.0054 3.88033 25.3579 4.71304L28.1997 3.45085L31.5491 6.80014L30.2873 9.64111C31.1203 10.9938 31.733 12.4701 32.1007 14.0155L35 15.1316V19.8683L32.1 20.9845C31.7323 22.5296 31.1197 24.0054 30.287 25.3578L31.5491 28.1996L28.1998 31.549L25.3588 30.2873C24.0061 31.1203 22.5298 31.7329 20.9844 32.1006L19.8684 35H15.1317L14.0155 32.1C12.4704 31.7323 10.9946 31.1197 9.64221 30.287L6.80035 31.5491L3.45093 28.1999L4.71268 25.3589C3.87968 24.0062 3.2671 22.5299 2.89931 20.9844L0 19.8683V15.1317L2.89975 14.0155C3.2674 12.4703 3.88004 10.9943 4.7129 9.64184L3.45093 6.80035L6.80021 3.45093L9.64199 4.71311C10.9944 3.88041 12.4702 3.26776 14.0153 2.90004L15.1317 0H19.8683L20.9845 2.89997ZM15.6144 24.1136H19.3856C19.7077 24.1136 19.9689 23.8524 19.9689 23.5303C19.9689 23.2081 19.7077 22.9469 19.3856 22.9469H15.6144C15.2923 22.9469 15.0311 23.2081 15.0311 23.5303C15.0311 23.8524 15.2923 24.1136 15.6144 24.1136ZM19.3856 21.3427V15.4454H20.9568L17.5 11.4696L14.0432 15.4454H15.6144V21.3427H19.3856ZM17.5 8.51725C12.5385 8.51725 8.51725 12.5385 8.51725 17.5C8.51725 22.4615 12.5385 26.4827 17.5 26.4827C22.4615 26.4827 26.4827 22.4615 26.4827 17.5C26.4827 12.5385 22.4615 8.51725 17.5 8.51725Z" fill="url(#paint0_linear_88_700)"/>
<defs>
<linearGradient id="paint0_linear_88_700" x1="35" y1="17.5" x2="0" y2="17.5" gradientUnits="userSpaceOnUse">
<stop stop-color="#4388DD"/>
<stop offset="0.571429" stop-color="#D4483C"/>
</linearGradient>
</defs>
</svg>
