<svg width="35" height="34" viewBox="0 0 35 34" fill="none" xmlns="http://www.w3.org/2000/svg">
<path d="M2.35035 21.4707H5.52816C6.02959 21.4707 6.43613 21.8772 6.43613 22.3787V32.8199C6.43613 33.3213 6.02965 33.7278 5.52816 33.7278H2.35035C1.84892 33.7278 1.44238 33.3213 1.44238 32.8199V22.3787C1.44245 21.8772 1.84892 21.4707 2.35035 21.4707Z" fill="url(#paint0_linear_88_656)"/>
<path d="M26.864 15.1147H30.0418C30.5433 15.1147 30.9498 15.5212 30.9498 16.0227V32.8194C30.9498 33.3208 30.5433 33.7273 30.0418 33.7273H26.864C26.3626 33.7273 25.9561 33.3209 25.9561 32.8194V16.0227C25.9561 15.5212 26.3626 15.1147 26.864 15.1147Z" fill="url(#paint1_linear_88_656)"/>
<path d="M10.5232 17.3843H13.701C14.2024 17.3843 14.609 17.7907 14.609 18.2922V32.8191C14.609 33.3205 14.2025 33.727 13.701 33.727H10.5232C10.0218 33.727 9.61523 33.3206 9.61523 32.8191V18.2922C9.61523 17.7908 10.0218 17.3843 10.5232 17.3843Z" fill="url(#paint2_linear_88_656)"/>
<path d="M18.6931 23.2861H21.8709C22.3724 23.2861 22.7789 23.6926 22.7789 24.1941V32.8194C22.7789 33.3208 22.3724 33.7273 21.8709 33.7273H18.6931C18.1917 33.7273 17.7852 33.3209 17.7852 32.8194V24.194C17.7852 23.6926 18.1916 23.2861 18.6931 23.2861Z" fill="url(#paint3_linear_88_656)"/>
<path d="M26.666 2.90483L26.9946 3.23302C27.3493 3.58754 27.3494 4.16237 26.9949 4.51702C26.9948 4.51709 26.9947 4.51723 26.9946 4.5173L20.3267 11.1865C19.9722 11.5409 19.3974 11.5409 19.0429 11.1865L11.68 3.82365C11.3255 3.469 10.7506 3.46886 10.396 3.82338C10.3959 3.82345 10.3958 3.82358 10.3957 3.82365L0.265837 13.9539C-0.0886125 14.3084 -0.0886125 14.8832 0.265837 15.2377L2.44032 17.4126C2.79484 17.7673 3.36968 17.7674 3.72434 17.4129L3.72461 17.4126L10.3957 10.7412C10.7502 10.3865 11.3251 10.3864 11.6797 10.7409L11.68 10.7412L19.0429 18.104C19.3974 18.4584 19.9722 18.4584 20.3267 18.104L30.4535 7.97787C30.808 7.62343 31.3828 7.62343 31.7373 7.97787L32.0932 8.33375C32.4476 8.68847 33.0225 8.68868 33.3772 8.33423C33.5041 8.20743 33.5906 8.04575 33.6258 7.8698L34.9822 1.08578C35.0805 0.594063 34.7614 0.115819 34.2697 0.0175855C34.1523 -0.00586185 34.0314 -0.00586185 33.914 0.0175855L27.1299 1.37446C26.6384 1.47372 26.3204 1.95264 26.4197 2.44415C26.4549 2.61854 26.5405 2.7787 26.666 2.90483Z" fill="url(#paint4_linear_88_656)"/>
<defs>
<linearGradient id="paint0_linear_88_656" x1="6.43613" y1="27.5993" x2="1.44238" y2="27.5993" gradientUnits="userSpaceOnUse">
<stop stop-color="#4388DD"/>
<stop offset="0.571429" stop-color="#D4483C"/>
</linearGradient>
<linearGradient id="paint1_linear_88_656" x1="30.9498" y1="24.421" x2="25.9561" y2="24.421" gradientUnits="userSpaceOnUse">
<stop stop-color="#4388DD"/>
<stop offset="0.571429" stop-color="#D4483C"/>
</linearGradient>
<linearGradient id="paint2_linear_88_656" x1="14.609" y1="25.5557" x2="9.61523" y2="25.5557" gradientUnits="userSpaceOnUse">
<stop stop-color="#4388DD"/>
<stop offset="0.571429" stop-color="#D4483C"/>
</linearGradient>
<linearGradient id="paint3_linear_88_656" x1="22.7789" y1="28.5067" x2="17.7852" y2="28.5067" gradientUnits="userSpaceOnUse">
<stop stop-color="#4388DD"/>
<stop offset="0.571429" stop-color="#D4483C"/>
</linearGradient>
<linearGradient id="paint4_linear_88_656" x1="35" y1="9.18492" x2="0" y2="9.18492" gradientUnits="userSpaceOnUse">
<stop stop-color="#4388DD"/>
<stop offset="0.571429" stop-color="#D4483C"/>
</linearGradient>
</defs>
</svg>
