<svg width="40" height="30" viewBox="0 0 40 30" fill="none" xmlns="http://www.w3.org/2000/svg">
<path d="M15 0H3.75C1.68213 0 0 1.68213 0 3.75V15C0 17.0679 1.68213 18.75 3.75 18.75H8.79578L6.89819 28.5114C6.82678 28.8782 6.92321 29.2572 7.16064 29.5453C7.39806 29.8334 7.75146 30 8.125 30H12.1747C13.2617 30 14.2279 29.2889 14.5569 28.2593L18.1958 19.6277C18.2165 19.5783 18.2342 19.5276 18.2483 19.4763C18.5815 18.2788 18.75 17.0404 18.75 15.7959V3.75C18.75 1.68213 17.0679 0 15 0Z" fill="#D4483C"/>
<path d="M36.25 0H25C22.9321 0 21.25 1.68213 21.25 3.75V15C21.25 17.0679 22.9321 18.75 25 18.75H30.0464L28.1482 28.5114C28.0762 28.8782 28.1726 29.2572 28.4106 29.5453C28.6475 29.8334 29.0015 30 29.375 30H33.4253C34.5129 30 35.4785 29.2889 35.8069 28.2587L39.4458 19.6277C39.4665 19.5782 39.4836 19.5276 39.4983 19.4763C39.8315 18.2776 40 17.0392 40 15.7959V3.75C40 1.68213 38.3179 0 36.25 0Z" fill="#D4483C"/>
</svg>
