<svg width="38" height="38" viewBox="0 0 38 38" fill="none" xmlns="http://www.w3.org/2000/svg">
<path d="M37.1941 18.7245L28.8816 15.8966C28.6346 15.8111 28.3654 15.8111 28.1184 15.8966L19.8059 18.7245C19.323 18.8875 19 19.3388 19 19.8486V26.2104C19 33.975 27.6672 37.7497 28.0361 37.9064C28.1849 37.9682 28.3417 37.9998 28.5 37.9998C28.6583 37.9998 28.8151 37.9682 28.9639 37.9048C29.3328 37.7481 38 33.975 38 26.2104V19.8486C38 19.3388 37.677 18.8875 37.1941 18.7245ZM33.7028 24.7284L29.3487 30.27C28.7945 30.9778 27.7558 31.0807 27.0734 30.4949L24.3026 28.1199C23.6376 27.5515 23.56 26.5508 24.1316 25.8874C24.7 25.224 25.7007 25.148 26.3625 25.7164L27.8793 27.0163L31.2122 22.7746C31.7522 22.0874 32.7465 21.9655 33.4353 22.5086C34.124 23.0453 34.2443 24.0413 33.7028 24.7284Z" fill="#D4483C"/>
<path d="M30.0833 0H4.75C2.12642 0 0 2.1264 0 4.74997C0 7.37353 2.12642 9.49994 4.75 9.49994H30.0833C32.7069 9.49994 34.8333 7.37353 34.8333 4.74997C34.8333 2.1264 32.7069 0 30.0833 0ZM4.75 6.33329C3.876 6.33329 3.16667 5.62396 3.16667 4.74997C3.16667 3.87597 3.876 3.16665 4.75 3.16665C5.624 3.16665 6.33333 3.87597 6.33333 4.74997C6.33333 5.62396 5.624 6.33329 4.75 6.33329ZM11.0833 6.33329C10.2093 6.33329 9.5 5.62396 9.5 4.74997C9.5 3.87597 10.2093 3.16665 11.0833 3.16665C11.9573 3.16665 12.6667 3.87597 12.6667 4.74997C12.6667 5.62396 11.9573 6.33329 11.0833 6.33329Z" fill="#D4483C"/>
<path d="M4.75 12.667C2.12167 12.667 0 14.7886 0 17.417C0 20.0453 2.12167 22.1669 4.75 22.1669H15.8333V19.8553C15.8333 17.987 17.0208 16.3245 18.7942 15.7228L27.0908 12.9045C27.55 12.7462 28.025 12.667 28.5 12.667H4.75ZM4.75 19.0003C3.87917 19.0003 3.16667 18.2878 3.16667 17.417C3.16667 16.5461 3.87917 15.8336 4.75 15.8336C5.62083 15.8336 6.33333 16.5461 6.33333 17.417C6.33333 18.2878 5.62083 19.0003 4.75 19.0003ZM11.0833 19.0003C10.2125 19.0003 9.5 18.2878 9.5 17.417C9.5 16.5461 10.2125 15.8336 11.0833 15.8336C11.9542 15.8336 12.6667 16.5461 12.6667 17.417C12.6667 18.2878 11.9542 19.0003 11.0833 19.0003Z" fill="#D4483C"/>
<path d="M15.8333 26.2038V25.333H4.75C2.12167 25.333 0 27.4547 0 30.083C0 32.7113 2.12167 34.8329 4.75 34.8329H18.9525C17.1317 32.5213 15.8333 29.6238 15.8333 26.2038ZM4.75 31.6663C3.87917 31.6663 3.16667 30.9538 3.16667 30.083C3.16667 29.2121 3.87917 28.4997 4.75 28.4997C5.62083 28.4997 6.33333 29.2121 6.33333 30.083C6.33333 30.9538 5.62083 31.6663 4.75 31.6663ZM11.0833 31.6663C10.2125 31.6663 9.5 30.9538 9.5 30.083C9.5 29.2121 10.2125 28.4997 11.0833 28.4997C11.9542 28.4997 12.6667 29.2121 12.6667 30.083C12.6667 30.9538 11.9542 31.6663 11.0833 31.6663Z" fill="#D4483C"/>
</svg>
