<svg width="30" height="38" viewBox="0 0 30 38" fill="none" xmlns="http://www.w3.org/2000/svg">
<path d="M7.49985 8.6842C6.62827 8.6842 5.9209 7.97683 5.9209 7.10526V1.57895C5.9209 0.707368 6.62827 0 7.49985 0C8.37142 0 9.07879 0.707368 9.07879 1.57895V7.10526C9.07879 7.97683 8.37142 8.6842 7.49985 8.6842Z" fill="#D4483C"/>
<path d="M14.9998 8.6842C14.1283 8.6842 13.4209 7.97683 13.4209 7.10526V1.57895C13.4209 0.707368 14.1283 0 14.9998 0C15.8714 0 16.5788 0.707368 16.5788 1.57895V7.10526C16.5788 7.97683 15.8714 8.6842 14.9998 8.6842Z" fill="#D4483C"/>
<path d="M22.4998 8.6842C21.6283 8.6842 20.9209 7.97683 20.9209 7.10526V1.57895C20.9209 0.707368 21.6283 0 22.4998 0C23.3714 0 24.0788 0.707368 24.0788 1.57895V7.10526C24.0788 7.97683 23.3714 8.6842 22.4998 8.6842Z" fill="#D4483C"/>
<path d="M25.6579 3.55273H4.34211C1.94684 3.55273 0 5.49957 0 7.89483V33.5527C0 35.948 1.94684 37.8948 4.34211 37.8948H25.6579C28.0532 37.8948 30 35.948 30 33.5527V7.89483C30 5.49957 28.0532 3.55273 25.6579 3.55273ZM7.89474 12.6317H15.7895C16.6611 12.6317 17.3684 13.339 17.3684 14.2106C17.3684 15.0822 16.6611 15.7896 15.7895 15.7896H7.89474C7.02316 15.7896 6.31579 15.0822 6.31579 14.2106C6.31579 13.339 7.02316 12.6317 7.89474 12.6317ZM23.6842 28.4211H7.89474C7.02316 28.4211 6.31579 27.7138 6.31579 26.8422C6.31579 25.9706 7.02316 25.2632 7.89474 25.2632H23.6842C24.5558 25.2632 25.2632 25.9706 25.2632 26.8422C25.2632 27.7138 24.5558 28.4211 23.6842 28.4211ZM23.6842 22.1053H7.89474C7.02316 22.1053 6.31579 21.398 6.31579 20.5264C6.31579 19.6548 7.02316 18.9475 7.89474 18.9475H23.6842C24.5558 18.9475 25.2632 19.6548 25.2632 20.5264C25.2632 21.398 24.5558 22.1053 23.6842 22.1053Z" fill="#D4483C"/>
</svg>
