<svg width="36" height="35" viewBox="0 0 36 35" fill="none" xmlns="http://www.w3.org/2000/svg">
<path d="M2.41731 22.0837H5.68591C6.20166 22.0837 6.61982 22.5018 6.61982 23.0176V33.7573C6.61982 34.2731 6.20174 34.6912 5.68591 34.6912H2.41731C1.90155 34.6912 1.4834 34.2731 1.4834 33.7573V23.0176C1.48347 22.5019 1.90155 22.0837 2.41731 22.0837Z" fill="#D4483C"/>
<path d="M27.6322 15.5466H30.9008C31.4165 15.5466 31.8347 15.9647 31.8347 16.4805V33.7573C31.8347 34.2731 31.4166 34.6912 30.9008 34.6912H27.6322C27.1164 34.6912 26.6982 34.2732 26.6982 33.7573V16.4805C26.6983 15.9647 27.1164 15.5466 27.6322 15.5466Z" fill="#D4483C"/>
<path d="M10.8226 17.8813H14.0912C14.6069 17.8813 15.0251 18.2994 15.0251 18.8153V33.7574C15.0251 34.2731 14.607 34.6913 14.0912 34.6913H10.8226C10.3068 34.6913 9.88867 34.2732 9.88867 33.7574V18.8153C9.88867 18.2995 10.3068 17.8813 10.8226 17.8813Z" fill="#D4483C"/>
<path d="M19.2279 23.9514H22.4965C23.0122 23.9514 23.4304 24.3695 23.4304 24.8853V33.7572C23.4304 34.2729 23.0123 34.6911 22.4965 34.6911H19.2279C18.7121 34.6911 18.2939 34.273 18.2939 33.7572V24.8853C18.2939 24.3695 18.712 23.9514 19.2279 23.9514Z" fill="#D4483C"/>
<path d="M27.4278 2.98786L27.7659 3.32544C28.1307 3.69009 28.1308 4.28135 27.7662 4.64614C27.7661 4.64621 27.766 4.64635 27.7659 4.64642L20.9075 11.5062C20.5429 11.8708 19.9517 11.8708 19.587 11.5062L12.0137 3.93295C11.6491 3.56816 11.0578 3.56802 10.693 3.93267C10.693 3.93274 10.6928 3.93288 10.6927 3.93295L0.273433 14.3527C-0.0911442 14.7174 -0.0911442 15.3086 0.273433 15.6732L2.51004 17.9103C2.87469 18.2751 3.46596 18.2753 3.83075 17.9106L3.83103 17.9103L10.6927 11.0482C11.0574 10.6834 11.6487 10.6833 12.0134 11.0479L12.0137 11.0482L19.587 18.6215C19.9517 18.9861 20.5429 18.9861 20.9075 18.6215L31.3236 8.20592C31.6882 7.84134 32.2794 7.84134 32.6441 8.20592L33.0101 8.57197C33.3747 8.93683 33.966 8.93704 34.3308 8.57246C34.4614 8.44203 34.5504 8.27574 34.5865 8.09475L35.9817 1.11681C36.0828 0.611044 35.7546 0.119129 35.2488 0.0180882C35.1281 -0.00602941 35.0037 -0.00602941 34.883 0.0180882L27.9051 1.41375C27.3995 1.51584 27.0724 2.00846 27.1745 2.51402C27.2107 2.69339 27.2988 2.85813 27.4278 2.98786Z" fill="#D4483C"/>
</svg>
