<svg width="21" height="19" viewBox="0 0 21 19" fill="none" xmlns="http://www.w3.org/2000/svg">
<path d="M5.25874 3.51731L6.993 4.46647C7.21565 4.58755 7.29767 4.86488 7.17659 5.08752C7.13362 5.16564 7.07112 5.22814 6.993 5.27111L5.25874 6.21636C5.18062 6.25933 5.11812 6.32182 5.07515 6.39994L4.12599 8.13421C4.00491 8.35685 3.72758 8.43888 3.50494 8.31779C3.42682 8.27483 3.36432 8.21233 3.32136 8.13421L2.3761 6.39994C2.33314 6.32182 2.27064 6.25933 2.19252 6.21636L0.458253 5.27111C0.23561 5.15002 0.153584 4.87269 0.27467 4.65005C0.317636 4.57193 0.380132 4.50943 0.458253 4.46647L2.19252 3.51731C2.27064 3.47434 2.33314 3.41184 2.3761 3.33372L3.32526 1.60336C3.44635 1.38072 3.72758 1.29869 3.95022 1.42369C4.02444 1.46665 4.08693 1.52915 4.1299 1.60336L5.07906 3.33372C5.11812 3.41184 5.18062 3.47434 5.25874 3.51731Z" fill="white"/>
<path d="M18.1679 12.7745L19.9022 13.7237C20.1248 13.8448 20.2069 14.1221 20.0858 14.3448C20.0428 14.4229 19.9803 14.4854 19.9022 14.5283L18.1679 15.4775C18.0898 15.5205 18.0273 15.583 17.9843 15.6611L17.0352 17.3953C16.9141 17.618 16.6329 17.7 16.4102 17.5789C16.3321 17.536 16.2696 17.4735 16.2266 17.3953L15.2853 15.6572C15.2423 15.5791 15.1798 15.5166 15.1017 15.4736L13.3674 14.5244C13.1448 14.4033 13.0628 14.1221 13.1838 13.8995C13.2268 13.8214 13.2893 13.7589 13.3674 13.7159L15.1017 12.7667C15.1798 12.7238 15.2423 12.6613 15.2853 12.5831L16.2344 10.8528C16.3555 10.6301 16.6368 10.5481 16.8594 10.6692C16.9375 10.7122 17 10.7747 17.043 10.8528L17.9921 12.5871C18.0273 12.6691 18.0898 12.7316 18.1679 12.7745Z" fill="white"/>
<path d="M10.6604 1.53312L11.7971 2.15417C11.9416 2.2362 11.9963 2.41978 11.9182 2.5643C11.8908 2.61508 11.8479 2.65414 11.7971 2.68539L10.6604 3.30645C10.6097 3.33379 10.5667 3.37675 10.5394 3.42753L9.9183 4.56418C9.83627 4.7087 9.65269 4.76339 9.50817 4.68527C9.45739 4.65793 9.41833 4.61496 9.38708 4.56418L8.76603 3.42753C8.73869 3.37675 8.69572 3.33379 8.64494 3.30645L7.50829 2.68539C7.36377 2.60727 7.30909 2.42369 7.38721 2.27526C7.41455 2.22448 7.45752 2.18152 7.50829 2.15417L8.64494 1.53312C8.69572 1.50578 8.73869 1.46281 8.76603 1.41203L9.38708 0.275383C9.46911 0.130861 9.65269 0.0761765 9.79721 0.154297C9.84799 0.181639 9.88705 0.224605 9.9183 0.275383L10.5394 1.41203C10.5667 1.46281 10.6097 1.50578 10.6604 1.53312Z" fill="white"/>
<path d="M19.7738 2.05261L18.1684 0.447243C17.5747 -0.14647 16.6099 -0.150376 16.0123 0.443337C16.0123 0.443337 16.0123 0.443337 16.0084 0.447243L1.69675 14.7628C1.10304 15.3565 1.09913 16.3213 1.69675 16.9189L3.30212 18.5243C3.89583 19.118 4.86062 19.1219 5.45824 18.5243L19.7738 4.20873C20.3675 3.61502 20.3675 2.65023 19.7738 2.05261ZM14.1921 7.46634L12.7547 6.02893L16.9927 1.787L18.4301 3.22441L14.1921 7.46634Z" fill="white"/>
</svg>
