<svg width="33" height="35" viewBox="0 0 33 35" fill="none" xmlns="http://www.w3.org/2000/svg">
<path fill-rule="evenodd" clip-rule="evenodd" d="M0 32.4486C0 31.4928 0.738737 30.718 1.65 30.718H31.35C32.2613 30.718 33 31.4928 33 32.4486C33 33.4043 32.2613 34.1791 31.35 34.1791H1.65C0.738737 34.1791 0 33.4043 0 32.4486Z" fill="white"/>
<path fill-rule="evenodd" clip-rule="evenodd" d="M10.9953 17.3062H22.0075C23.2489 17.3062 24.2716 17.3062 25.0875 17.3902C25.9292 17.4769 26.7119 17.6652 27.393 18.1593C28.1253 18.6906 28.6934 19.4347 29.0251 20.3008C29.3343 21.1083 29.3316 21.9495 29.2204 22.8245C29.1127 23.6712 28.879 24.7078 28.596 25.9636L28.5692 26.0824C28.2882 27.3296 28.0598 28.3427 27.8073 29.1562C27.5455 29.9999 27.2308 30.723 26.7316 31.3601C26.1597 32.09 25.4426 32.6808 24.6304 33.0923C23.9226 33.4511 23.1768 33.604 22.3294 33.6764C21.5113 33.7463 20.5115 33.7463 19.279 33.7463H13.724C12.4912 33.7463 11.4916 33.7463 10.6736 33.6764C9.82617 33.604 9.08037 33.4511 8.37241 33.0923C7.56028 32.6808 6.84311 32.09 6.27123 31.3601C5.77201 30.723 5.45742 29.9999 5.19555 29.1562C4.94305 28.3427 4.71472 27.3296 4.43366 26.0826L4.40682 25.9636C4.12376 24.7077 3.89013 23.6712 3.78249 22.8245C3.67126 21.9495 3.66857 21.1083 3.97782 20.3008C4.3095 19.4347 4.87748 18.6906 5.6098 18.1593C6.29085 17.6652 7.07369 17.4769 7.91548 17.3902C8.73136 17.3062 9.75388 17.3062 10.9953 17.3062ZM14.8514 22.4977C14.1679 22.4977 13.6139 23.0789 13.6139 23.7957C13.6139 24.5124 14.1679 25.0936 14.8514 25.0936H18.1514C18.8348 25.0936 19.3889 24.5124 19.3889 23.7957C19.3889 23.0789 18.8348 22.4977 18.1514 22.4977H14.8514Z" fill="white"/>
<g opacity="0.4">
<path fill-rule="evenodd" clip-rule="evenodd" d="M22.0789 15.8774C19.4925 11.9308 13.4756 12.0914 10.9085 15.8924C10.5135 16.4773 9.74114 16.6156 9.18343 16.2013C8.62571 15.787 8.49387 14.9769 8.88889 14.392C12.3886 9.21024 20.4967 8.88052 24.1185 14.4071C24.5057 14.9977 24.3629 15.8059 23.7997 16.2119C23.2364 16.6179 22.466 16.4681 22.0789 15.8774Z" fill="white"/>
<path fill-rule="evenodd" clip-rule="evenodd" d="M16.4984 2.59581C15.3592 2.59581 14.436 3.5643 14.436 4.759C14.436 5.9537 15.3592 6.92215 16.4984 6.92215C17.6374 6.92215 18.5609 5.9537 18.5609 4.759C18.5609 3.5643 17.6374 2.59581 16.4984 2.59581ZM11.9609 4.759C11.9609 2.13068 13.9924 0 16.4984 0C19.0043 0 21.036 2.13068 21.036 4.759C21.036 7.38733 19.0043 9.51798 16.4984 9.51798C13.9924 9.51798 11.9609 7.38733 11.9609 4.759Z" fill="white"/>
</g>
</svg>
