<svg width="33" height="22" viewBox="0 0 33 22" fill="none" xmlns="http://www.w3.org/2000/svg">
<path d="M30.1127 2.13776L23.8336 6.42574V15.3533L30.1127 19.635C31.3273 20.4637 33.0002 19.6185 33.0002 18.1722V3.60113C33.0002 2.16045 31.333 1.31137 30.1127 2.13776ZM15.5836 9.52822H12.3238V6.30093C12.3238 5.59764 11.7623 4.9907 11.0003 4.9907C10.2383 4.9907 9.62529 5.59764 9.62529 6.30093V9.52822H6.36542C5.6573 9.52822 5.04199 10.1352 5.04199 10.8895C5.04199 11.6416 5.65673 12.1997 6.36542 12.1997H9.62529V15.376C9.62529 16.1814 10.2383 16.7882 11.0003 16.7882C11.76 16.7882 12.3238 16.1791 12.3238 15.4781V12.1997H15.5836C16.3456 12.1997 16.9586 11.6439 16.9586 10.8895C16.9586 10.1352 16.3456 9.52822 15.5836 9.52822Z" fill="white"/>
<path opacity="0.4" d="M19.2499 0H2.74999C1.23119 0 0 1.21889 0 2.72251V19.0576C0 20.5606 1.23119 21.7801 2.74999 21.7801H19.2499C20.7687 21.7801 21.9999 20.5612 21.9999 19.0576V2.72251C21.9999 1.21889 20.7681 0 19.2499 0ZM15.5832 12.2003H12.3234V15.3765C12.3234 16.1819 11.7619 16.7888 11 16.7888C10.2397 16.7888 9.67654 16.1796 9.67654 15.4786V12.2003H6.36507C5.65638 12.2003 5.04164 11.6444 5.04164 10.89C5.04164 10.138 5.65695 9.57981 6.36507 9.57981H9.62493V6.30151C9.62493 5.59814 10.238 4.99127 11 4.99127C11.7619 4.99127 12.3234 5.60045 12.3234 6.30151V9.52879H15.5832C16.3452 9.52879 16.9582 10.1357 16.9582 10.89C16.9582 11.6444 16.3452 12.2003 15.5832 12.2003Z" fill="white"/>
</svg>
