<svg width="31" height="35" viewBox="0 0 31 35" fill="none" xmlns="http://www.w3.org/2000/svg">
<path d="M18.456 2.2629L17.4032 0.81019C17.2566 0.607882 17.1834 0.506795 17.0716 0.454557C16.96 0.402385 16.8415 0.410625 16.6046 0.427041C13.9055 0.614595 11.4461 1.67292 9.505 3.32316C9.40252 3.41029 9.46532 3.56893 9.59964 3.57684C11.1569 3.66849 11.9856 4.53368 12.8933 5.49325C14.2963 6.97654 15.3995 6.85391 15.9167 6.58056C16.128 6.46884 16.1669 6.38975 16.1803 6.3625L16.1812 6.36057C16.2234 6.2753 16.2411 6.18418 16.304 5.83905C16.3566 5.55068 16.4479 5.05567 16.7642 4.57768C17.0987 4.07218 17.5982 3.70372 18.2567 3.44259C18.5313 3.33373 18.6158 3.1814 18.6462 3.03771C18.6842 2.85866 18.6535 2.57374 18.456 2.2629Z" fill="white"/>
<path d="M19.9633 24.3826C20.1457 24.5354 20.2369 24.6119 20.3522 24.6367C20.4675 24.6615 20.5762 24.6309 20.7939 24.5701C24.714 23.4721 27.8435 20.4806 29.1352 16.6436C29.3046 16.14 29.3894 15.8883 29.2468 15.6898C29.1042 15.4915 28.8239 15.4915 28.2633 15.4915H27.7911C26.9974 15.4915 26.5629 15.7843 25.9257 16.2231L25.903 16.2386C25.244 16.6923 24.2816 17.355 22.7936 17.0572C20.8326 16.6648 19.8949 16.7692 19.4906 16.9561C19.3398 17.0258 19.2794 17.0993 19.2366 17.1854C19.1799 17.2997 19.1232 17.5086 19.1232 17.8765L19.1234 18.0149C19.1237 18.8267 19.124 19.4402 18.9848 19.9996C18.8398 20.5818 18.5515 21.0767 18.1968 21.6862L18.1362 21.7902C17.9059 22.1866 17.8619 22.406 17.8665 22.5081C17.8681 22.5426 17.875 22.572 17.8988 22.6129C17.9264 22.6601 17.9953 22.7524 18.1614 22.8756C18.1805 22.8896 18.199 22.9042 18.217 22.9194L19.9633 24.3826Z" fill="white"/>
<path opacity="0.4" d="M20.7088 1.45264C20.5538 1.11515 20.4763 0.946406 20.5443 0.869045C20.6121 0.791618 20.7748 0.841863 21.1003 0.942286C26.1241 2.49283 29.7749 7.17529 29.7749 12.7109C29.7749 12.9323 29.5927 13.1081 29.3714 13.1081H27.7899C26.2441 13.1081 25.2859 13.7688 24.628 14.2224L24.5744 14.2594C23.9373 14.698 23.7135 14.811 23.2595 14.72C21.2505 14.3181 19.641 14.2605 18.4902 14.7926C17.8635 15.0823 17.3947 15.5364 17.1023 16.1246C16.8241 16.6848 16.7401 17.2971 16.7401 17.8765C16.7401 18.8891 16.7315 19.1852 16.6723 19.4232C16.6191 19.6369 16.519 19.8295 16.076 20.5921C15.7692 21.1197 15.4506 21.8245 15.4858 22.6137C15.5238 23.4757 15.9673 24.2051 16.7113 24.7673C16.8083 24.8487 16.7469 25.0045 16.6207 24.9958C10.219 24.5603 5.16113 19.2266 5.16113 12.7109C5.16113 10.524 5.73091 8.47029 6.73002 6.69026C6.92256 6.34718 7.01879 6.17571 7.20462 6.06692C7.39044 5.95812 7.60432 5.95812 8.03213 5.95812H9.49002C9.98941 5.99334 10.2432 6.16043 11.1618 7.13156C13.0924 9.17252 15.3227 9.58923 17.0278 8.68788C17.6446 8.36189 18.0591 7.93328 18.314 7.41894C18.5164 7.01027 18.5909 6.58146 18.6328 6.34014L18.6458 6.2665C18.696 5.99102 18.7254 5.92881 18.7487 5.89352C18.7563 5.88176 18.8205 5.78206 19.1326 5.65838C20.1329 5.26174 20.7748 4.47364 20.9746 3.53301C21.1271 2.81523 21.0057 2.09931 20.7088 1.45264Z" fill="white"/>
<path fill-rule="evenodd" clip-rule="evenodd" d="M7.49065 0.481065C8.10203 1.10986 8.08787 2.11528 7.45908 2.72659C4.81239 5.29977 3.17605 8.87785 3.17605 12.8352C3.17605 20.6438 9.56245 26.9963 17.4682 26.9963C21.3682 26.9963 24.8987 25.4507 27.4774 22.9437C28.1062 22.3323 29.1116 22.3466 29.723 22.9753C30.3343 23.6041 30.3202 24.6095 29.6914 25.2209C26.5412 28.2836 22.2243 30.1724 17.4682 30.1724V31.7604H19.0562C19.9333 31.7604 20.6443 32.4713 20.6443 33.3484C20.6443 34.2255 19.9333 34.9364 19.0562 34.9364H12.7041C11.8271 34.9364 11.1161 34.2255 11.1161 33.3484C11.1161 32.4713 11.8271 31.7604 12.7041 31.7604H14.2922V29.8863C6.16927 28.4047 0 21.3436 0 12.8352C0 7.98122 2.01178 3.59298 5.24512 0.449428C5.87391 -0.161949 6.87934 -0.147792 7.49065 0.481065Z" fill="white"/>
</svg>
