<svg width="33" height="30" viewBox="0 0 33 30" fill="none" xmlns="http://www.w3.org/2000/svg">
<path opacity="0.4" d="M32.9993 8.50784V21.5336C33.0071 23.7394 32.1365 25.8579 30.5792 27.4218C29.0221 28.9857 26.9062 29.8668 24.6982 29.8707H8.34513C6.13324 29.8745 4.01057 28.9994 2.44513 27.4383C0.879686 25.8771 0 23.758 0 21.5482V8.50784C0.00120507 7.53744 0.175018 6.57497 0.513324 5.66532C1.70539 2.36899 4.83689 0.172044 8.34513 0.170778H24.6542C28.2052 0.168796 31.3671 2.41589 32.53 5.76789C32.8527 6.6449 33.0117 7.57356 32.9993 8.50784Z" fill="white"/>
<path d="M32.8145 5.61176L32.6532 5.74363C29.6173 8.10261 19.7908 16.0001 19.7908 16.0001C18.0821 17.3883 15.633 17.3883 13.9242 16.0001C13.9242 16.0001 4.15645 8.11728 1.12051 5.75828L0.797852 5.5092C1.98503 2.20709 5.11764 0.00349224 8.6297 0H24.9387C28.4936 0.000174649 31.6567 2.25398 32.8145 5.61176Z" fill="white"/>
</svg>
