<svg width="45" height="46" viewBox="0 0 45 46" fill="none" xmlns="http://www.w3.org/2000/svg">
<path d="M43.7651 19.5256C42.9651 18.7256 41.914 18.2884 40.7884 18.2884C36.5279 18.2884 32.3233 18.9767 28.286 20.3442L26.407 20.9767C26.2953 21.014 26.2302 20.8558 26.3326 20.8093L28.1186 19.9256C31.9419 18.0372 35.4023 15.5535 38.4163 12.5395C39.207 11.7488 39.6442 10.7163 39.6535 9.61861C39.6814 7.31163 37.8023 5.38605 35.4953 5.34884C34.3512 5.33023 33.2721 5.77674 32.4628 6.58605C29.4488 9.6 26.9651 13.0605 25.0767 16.8837L24.193 18.6698C24.1372 18.7721 23.9884 18.707 24.0256 18.5954L24.6581 16.7163C26.0256 12.6791 26.714 8.47442 26.714 4.21395C26.714 3.08837 26.2767 2.02791 25.4767 1.23721C24.6767 0.437209 23.6256 0 22.5 0C21.3744 0 20.314 0.437209 19.5233 1.23721C18.7233 2.03721 18.286 3.08837 18.286 4.21395C18.286 8.47442 18.9744 12.6791 20.3419 16.7163L20.9744 18.5954C21.0116 18.707 20.8535 18.7721 20.807 18.6698L19.9233 16.8837C18.0349 13.0605 15.5512 9.6 12.5372 6.58605C11.7465 5.79535 10.714 5.35814 9.61628 5.34884C7.3 5.32093 5.37442 7.2 5.34651 9.50698C5.32791 10.6512 5.77442 11.7302 6.58372 12.5395C9.59767 15.5535 13.0581 18.0372 16.8814 19.9256L18.6674 20.8093C18.7698 20.8651 18.7047 21.014 18.593 20.9767L16.714 20.3442C12.6767 18.9767 8.47209 18.2884 4.21163 18.2884C3.08605 18.2884 2.02558 18.7256 1.23488 19.5256C-0.411628 21.1721 -0.411628 23.8419 1.23488 25.4884C2.03488 26.2884 3.08605 26.7256 4.21163 26.7256C8.47209 26.7256 12.6767 26.0372 16.714 24.6698L18.593 24.0372C18.7047 24 18.7698 24.1581 18.6674 24.2047L16.8814 25.0884C13.0581 26.9767 9.59767 29.4605 6.58372 32.4744C5.79302 33.2651 5.35581 34.2977 5.34651 35.3954C5.3186 37.7023 7.19767 39.6279 9.50465 39.6651C10.6488 39.6837 11.7279 39.2372 12.5372 38.4279C15.5512 35.414 18.0349 31.9535 19.9233 28.1302L20.807 26.3442C20.8628 26.2419 21.0116 26.307 20.9744 26.4186L20.3419 28.2977C18.9744 32.3349 18.286 36.5395 18.286 40.8C18.286 41.9256 18.7233 42.986 19.5233 43.7767C20.3233 44.5767 21.3744 45.014 22.5 45.014C23.6256 45.014 24.686 44.5767 25.4767 43.7767C26.2767 42.9767 26.714 41.9256 26.714 40.8C26.714 36.5395 26.0256 32.3349 24.6581 28.2977L24.0256 26.4186C23.9884 26.307 24.1465 26.2419 24.193 26.3442L25.0767 28.1302C26.9651 31.9535 29.4488 35.414 32.4628 38.4279C33.2535 39.2186 34.286 39.6558 35.3837 39.6651C37.6907 39.693 39.6163 37.814 39.6535 35.507C39.6721 34.3628 39.2256 33.2837 38.4163 32.4744C35.4023 29.4605 31.9419 26.9767 28.1186 25.0884L26.3326 24.2047C26.2302 24.1488 26.2953 24 26.407 24.0372L28.286 24.6698C32.3233 26.0372 36.5279 26.7256 40.7884 26.7256C41.914 26.7256 42.9744 26.2884 43.7651 25.4884C45.4116 23.8419 45.4116 21.1628 43.7651 19.5256Z" fill="#D4483C"/>
</svg>
