<svg width="303" height="349" viewBox="0 0 303 349" fill="none" xmlns="http://www.w3.org/2000/svg">
<path d="M0 91.6583C0 80.1246 6.61206 69.6122 17.0081 64.6174L138.508 6.24206C146.72 2.29657 156.28 2.29656 164.492 6.24205L285.992 64.6174C296.388 69.6122 303 80.1246 303 91.6583V315C303 331.569 289.569 345 273 345H30C13.4314 345 0 331.569 0 315V91.6583Z" fill="#222122" fill-opacity="0.5"/>
<path d="M138.833 6.91797C146.84 3.07123 156.16 3.07123 164.167 6.91797L285.667 65.293C295.803 70.1629 302.25 80.4129 302.25 91.6582V315C302.25 331.154 289.154 344.25 273 344.25H30C13.8457 344.25 0.75 331.154 0.75 315V91.6582C0.750023 80.4129 7.19693 70.1629 17.333 65.293L138.833 6.91797Z" stroke="white" stroke-opacity="0.05" stroke-width="1.5"/>
<path d="M303 319C303 335.569 289.569 349 273 349H30C13.4315 349 6.44299e-07 335.569 0 319V314C6.44299e-07 330.569 13.4315 344 30 344H273C289.569 344 303 330.569 303 314V319Z" fill="url(#paint0_linear_82_260)"/>
<path d="M138.941 3.75511C146.911 0.0816305 156.089 0.0816274 164.059 3.75511L285.559 59.7619C296.19 64.6627 303 75.3003 303 87.0071V94.0071C303 82.3003 296.19 71.6627 285.559 66.7619L164.059 10.7551C156.089 7.08163 146.911 7.08163 138.941 10.7551L17.4414 66.7619C6.80984 71.6627 0 82.3003 0 94.0071V87.0071C0 75.3003 6.80984 64.6627 17.4414 59.7619L138.941 3.75511Z" fill="url(#paint1_linear_82_260)"/>
<defs>
<linearGradient id="paint0_linear_82_260" x1="0" y1="331.5" x2="303" y2="331.5" gradientUnits="userSpaceOnUse">
<stop offset="0.541254" stop-color="#D4483C"/>
<stop offset="1" stop-color="#4587DB"/>
</linearGradient>
<linearGradient id="paint1_linear_82_260" x1="0" y1="47.5035" x2="303" y2="47.5035" gradientUnits="userSpaceOnUse">
<stop offset="0.554455" stop-color="#D4483C"/>
<stop offset="1" stop-color="#4587DB"/>
</linearGradient>
</defs>
</svg>
